<svg id="Layer_1" data-name="Layer 1" xmlns="http://www.w3.org/2000/svg" viewBox="0 0 112.52 112.88"><defs><style>.cls-1{fill:#0e679d;}.cls-2{fill:none;stroke:#0e679d;stroke-linecap:round;stroke-miterlimit:10;stroke-width:8px;}</style></defs><path class="cls-1" d="M284.16,374.3c0,2,.18,5.82.22,7.81-5.68-.06-11.29.13-11.29.13l-.66,56.42,57.86.4L330.16,428s6.15.05,7.37,0v9.82a8.64,8.64,0,0,1-2.63,5.77l-11.42,9.94a10.81,10.81,0,0,1-6.12,2.29h-60.3a3.49,3.49,0,0,1-3.49-3.49V397a10.1,10.1,0,0,1,2.39-6c3.62-3.85,5.46-6.39,15.59-16.54h0m0,0c.07-.08,7.2,0,10.86-.16l1.73,0" transform="translate(-253.57 -342.84)"/><rect class="cls-2" x="44.43" y="4" width="64.09" height="64.09" rx="1.16"/><path class="cls-2" d="M348.32,415.66v10a1.16,1.16,0,0,1-1.17,1.16H285.39a1.16,1.16,0,0,1-1.16-1.16V363.92a1.16,1.16,0,0,1,1.16-1.16h11.4" transform="translate(-253.57 -342.84)"/></svg>